<?xml version="1.0" standalone="no"?>
<!DOCTYPE svg PUBLIC "-//W3C//DTD SVG 20010904//EN"
 "http://www.w3.org/TR/2001/REC-SVG-20010904/DTD/svg10.dtd">
<svg version="1.0" xmlns="http://www.w3.org/2000/svg"
 width="1000.000000pt" height="1000.000000pt" viewBox="0 0 1000.000000 1000.000000"
 preserveAspectRatio="xMidYMid meet">
<metadata>
Created by potrace 1.14, written by Peter Selinger 2001-2017
</metadata>
<g transform="translate(0.000000,1000.000000) scale(0.100000,-0.100000)"
fill="#000000" stroke="none">
<path d="M4728 9565 c-2 -2 -39 -6 -83 -10 -153 -12 -164 -14 -290 -31 -87
-12 -253 -41 -335 -59 -14 -4 -34 -8 -45 -10 -240 -54 -528 -148 -770 -252
-149 -65 -378 -177 -445 -218 -19 -12 -75 -46 -125 -75 -489 -291 -942 -704
-1311 -1195 -190 -253 -393 -607 -523 -910 -23 -55 -46 -109 -51 -120 -5 -11
-20 -52 -35 -92 -26 -72 -66 -116 -81 -91 -5 7 -3 8 6 3 9 -5 11 -4 6 4 -4 6
-12 9 -17 5 -5 -3 -7 -10 -4 -15 4 -5 -3 -9 -14 -9 -11 0 -23 -5 -26 -10 -4
-7 -12 -7 -25 0 -13 7 -21 7 -26 -2 -5 -7 -3 -8 6 -3 9 5 11 4 6 -3 -5 -9 -13
-9 -28 -1 -11 6 -18 7 -15 2 3 -5 -3 -15 -15 -22 -11 -7 -17 -8 -14 -2 4 5 -2
9 -13 8 -11 -1 -17 -6 -14 -14 4 -9 0 -11 -13 -6 -12 4 -15 3 -10 -5 9 -15 1
-15 -26 -1 -13 7 -18 7 -14 0 8 -12 -24 -30 -43 -23 -9 3 -11 0 -6 -8 6 -9 4
-11 -5 -5 -7 4 -16 2 -20 -6 -5 -7 -16 -14 -25 -15 -9 -1 -23 -8 -32 -16 -9
-7 -24 -12 -35 -10 -10 2 -21 -3 -24 -12 -3 -8 -13 -17 -21 -20 -12 -5 -13 -3
-7 7 5 7 -2 1 -15 -13 -13 -14 -20 -20 -17 -13 4 7 -4 6 -24 -3 -16 -9 -30
-20 -30 -26 0 -6 -6 -5 -15 2 -13 11 -14 10 -9 -5 5 -12 4 -16 -3 -12 -7 5 -9
-1 -5 -15 4 -16 2 -19 -9 -13 -12 7 -12 6 -1 -7 9 -11 10 -18 2 -23 -12 -8 -4
-25 13 -25 7 0 6 4 -3 10 -9 6 -10 10 -3 10 20 0 24 -18 6 -29 -12 -7 -13 -10
-4 -11 9 0 12 -8 9 -25 -3 -13 -1 -22 3 -19 5 3 9 -4 9 -16 0 -14 -4 -19 -12
-14 -9 5 -9 2 1 -9 15 -19 26 -23 15 -5 -4 7 -3 8 5 4 9 -6 9 -11 0 -22 -9
-11 -8 -14 2 -15 8 0 5 -4 -6 -9 -17 -7 -17 -9 -2 -9 9 -1 17 -8 17 -17 0 -9
5 -12 13 -8 6 4 3 -2 -7 -14 -17 -19 -17 -22 -3 -22 10 0 14 -5 11 -15 -4 -8
-11 -12 -18 -9 -6 3 -3 -1 7 -9 14 -11 15 -16 5 -20 -8 -3 -6 -6 5 -6 10 -1
15 -6 12 -11 -4 -6 -10 -8 -15 -5 -5 3 -3 -8 3 -24 6 -17 15 -28 19 -25 4 3 8
0 8 -5 0 -6 -6 -11 -12 -11 -9 0 -8 -4 2 -10 13 -8 13 -10 1 -10 -11 0 -10 -4
5 -16 10 -8 13 -12 5 -8 -11 5 -13 3 -8 -10 4 -10 7 -20 7 -22 0 -3 4 -3 8 0
4 2 8 -4 8 -14 0 -14 -3 -16 -13 -8 -10 8 -12 7 -7 -6 3 -9 10 -16 14 -16 4 0
11 -7 14 -16 3 -8 2 -13 -3 -10 -5 3 -12 -1 -15 -10 -3 -8 -2 -13 3 -10 5 3
14 -1 21 -9 11 -13 10 -14 -4 -9 -12 5 -15 2 -10 -10 3 -9 11 -16 18 -16 6 0
4 -5 -4 -10 -13 -9 -13 -10 0 -10 13 0 13 -1 0 -10 -8 -5 -10 -10 -4 -10 7 0
14 -7 17 -14 4 -11 1 -13 -11 -10 -9 3 -6 -2 8 -10 19 -11 21 -15 8 -16 -9 0
-20 -5 -23 -10 -4 -6 -3 -10 2 -9 4 1 15 1 22 0 12 -1 12 -4 3 -13 -14 -14
-16 -32 -3 -24 5 3 11 -3 14 -13 3 -15 1 -18 -12 -14 -10 3 -7 -3 8 -16 19
-17 20 -21 7 -21 -10 0 -14 -5 -11 -10 4 -6 10 -8 14 -6 3 3 7 -4 7 -14 0 -10
-5 -16 -10 -13 -5 4 -2 -4 7 -17 12 -18 14 -28 5 -43 -9 -17 -8 -19 8 -13 17
6 17 6 -1 -14 -16 -18 -17 -20 -2 -14 16 6 23 -14 18 -53 -1 -7 4 -13 11 -14
7 0 5 -4 -6 -8 -17 -7 -17 -8 -2 -23 12 -12 13 -18 3 -21 -9 -4 -9 -6 1 -6 6
-1 12 -6 12 -12 0 -5 -5 -7 -12 -3 -7 4 -1 -8 12 -26 19 -27 21 -32 7 -27 -15
6 -16 4 -7 -13 6 -11 8 -25 5 -30 -3 -6 -1 -10 6 -10 8 0 7 -5 -2 -17 -11 -13
-11 -15 -1 -9 10 6 13 2 12 -15 -4 -41 -1 -51 13 -43 8 5 8 2 -2 -9 -11 -15
-11 -17 1 -17 11 0 14 -12 12 -50 -3 -42 0 -50 14 -51 14 0 14 -2 -3 -9 -11
-5 -14 -9 -7 -9 10 -1 10 -6 1 -23 -11 -20 -10 -21 3 -11 21 18 30 4 13 -19
-14 -21 -10 -52 6 -42 5 3 9 2 8 -3 -1 -4 0 -10 1 -13 7 -19 7 -39 -1 -35 -5
4 -6 -1 -3 -9 3 -9 10 -14 14 -11 5 3 12 0 16 -6 5 -8 3 -9 -6 -4 -10 6 -12 3
-8 -13 4 -12 2 -20 -2 -17 -10 6 -6 -18 9 -58 6 -15 8 -27 5 -27 -3 0 -1 -8 5
-17 7 -13 5 -23 -7 -38 -14 -16 -14 -17 -1 -7 9 6 19 9 22 5 4 -3 -1 -12 -11
-20 -13 -10 -14 -13 -2 -11 8 2 14 -3 12 -9 -1 -7 3 -13 9 -13 5 0 8 -4 5 -8
-2 -4 4 -8 15 -8 10 0 19 5 19 11 1 5 8 -1 16 -15 8 -14 13 -17 10 -7 -5 15
-2 16 14 7 11 -6 20 -14 20 -18 0 -36 45 -272 76 -395 14 -56 27 -110 29 -120
14 -63 94 -312 136 -424 227 -601 577 -1147 1026 -1599 174 -176 223 -220 391
-354 186 -148 303 -232 482 -342 300 -185 685 -359 1025 -463 119 -37 322 -90
380 -100 17 -3 37 -8 45 -10 8 -2 26 -6 40 -9 14 -2 52 -9 85 -15 64 -11 107
-18 230 -35 22 -3 56 -8 76 -10 198 -28 774 -28 983 -1 17 3 56 7 86 10 30 3
66 8 80 10 14 3 43 7 65 11 94 13 350 67 470 100 396 107 807 279 1120 469 50
30 97 58 105 62 29 14 266 177 350 241 258 197 521 446 725 686 145 170 373
491 456 641 9 17 31 55 48 85 167 291 322 671 421 1030 42 150 98 425 114 555
4 28 9 64 11 80 22 150 29 277 29 560 1 252 -3 354 -20 495 -12 107 -36 270
-50 335 -18 88 -19 80 14 101 23 15 25 15 13 1 -19 -24 -5 -21 18 4 12 13 21
17 26 10 3 -6 11 -11 16 -11 6 0 7 5 3 11 -4 7 1 7 16 -1 12 -7 20 -8 16 -2
-3 5 2 13 12 17 29 13 42 14 42 3 0 -7 5 -7 13 1 8 6 17 8 20 4 4 -3 7 -1 7 6
0 7 4 10 8 7 5 -3 9 1 9 9 0 8 -4 12 -9 9 -13 -8 -10 10 5 25 10 11 9 12 -2 6
-11 -6 -13 -4 -8 8 4 10 1 17 -6 17 -8 0 -6 4 3 10 12 8 12 10 1 10 -10 0 -11
3 -2 14 9 11 9 16 0 22 -8 5 -10 3 -4 -7 5 -8 4 -11 0 -6 -5 4 -9 21 -10 38
-1 23 2 29 14 24 10 -4 7 2 -6 15 -24 21 -31 36 -13 25 17 -10 11 7 -7 22 -10
8 -12 12 -5 8 7 -4 12 0 12 9 0 9 -6 16 -12 16 -9 0 -8 4 2 10 8 5 11 10 5 10
-5 0 -3 5 5 10 12 8 10 10 -10 10 -19 0 -22 2 -11 9 12 8 13 14 2 37 -11 26
-11 26 6 13 15 -11 15 -10 -1 9 -23 26 -29 52 -14 52 6 0 4 7 -3 17 -10 11
-10 14 -1 9 6 -4 12 -2 12 3 0 6 -8 11 -17 12 -10 0 -13 3 -6 5 11 5 11 13 -4
52 -10 26 -10 36 -1 55 6 11 5 17 -4 17 -9 0 -9 3 2 10 13 8 13 11 1 22 -12
11 -13 10 -6 -2 5 -8 4 -11 0 -7 -12 10 -15 38 -4 31 15 -9 10 13 -6 26 -9 8
-12 17 -7 24 11 14 8 93 -3 103 -4 5 -6 3 -2 -2 8 -15 -8 -40 -17 -26 -4 6 -3
11 1 11 14 0 13 42 0 59 -9 12 -9 13 1 7 6 -4 12 -2 12 3 0 6 -6 11 -12 11 -9
0 -8 4 2 10 13 9 13 10 0 11 -10 0 -8 3 5 9 16 7 17 9 3 9 -21 1 -27 20 -17
49 5 13 5 21 0 18 -5 -3 -12 1 -15 10 -8 21 -8 24 5 24 5 0 7 -5 3 -12 -5 -7
-3 -8 5 -4 9 6 8 13 -6 29 -10 11 -13 18 -7 14 12 -7 12 29 -1 40 -4 5 -5 3
-1 -4 3 -6 2 -14 -3 -17 -5 -4 -8 1 -7 10 1 8 8 19 15 24 10 5 10 9 2 11 -7 3
-13 14 -14 27 0 12 -4 22 -7 22 -4 0 -7 7 -7 15 0 12 3 12 15 2 13 -10 14 -9
4 9 -6 12 -9 24 -6 26 2 3 -2 11 -11 18 -11 9 -12 17 -4 32 7 12 7 18 1 14 -5
-3 -13 1 -16 10 -3 8 -2 12 4 9 9 -6 12 1 9 22 -1 11 32 22 71 22 26 1 31 4
20 11 -20 13 -4 13 20 0 15 -8 21 -6 29 7 9 14 12 15 19 5 7 -11 11 -10 16 3
5 14 9 15 21 5 10 -9 15 -9 15 -1 0 6 5 11 11 11 5 0 7 -5 3 -12 -4 -7 -3 -8
4 -4 7 4 12 13 12 19 0 7 9 13 19 13 11 0 17 -5 13 -11 -3 -5 2 -4 11 4 14 11
20 11 34 0 14 -12 16 -12 8 0 -6 10 -4 13 7 9 8 -3 19 2 25 12 7 11 21 16 37
15 14 -2 29 1 32 6 3 5 2 9 -3 8 -20 -3 -24 2 -13 16 10 13 11 18 1 28 -10 9
-11 8 -6 -8 5 -15 5 -17 -3 -6 -7 10 -7 21 -1 33 8 14 6 18 -8 19 -12 0 -13 2
-5 6 10 4 10 9 -3 23 -12 14 -13 20 -4 26 7 4 10 3 6 -3 -4 -6 0 -13 8 -16 12
-5 12 -2 3 18 -6 13 -15 22 -21 18 -6 -4 -7 -1 -2 7 4 7 2 16 -6 21 -10 6 -11
9 -1 9 16 0 16 27 0 33 -10 4 -10 6 0 6 6 1 12 6 12 12 0 5 -6 7 -12 3 -10 -6
-10 -4 0 7 18 19 15 32 -5 25 -17 -7 -17 -6 -1 10 17 17 17 19 -4 42 -21 21
-21 23 -3 16 16 -6 18 -5 9 7 -6 8 -10 24 -9 36 1 12 -4 24 -12 27 -16 6 -18
26 -2 26 5 0 7 -5 3 -12 -5 -7 -3 -8 6 -3 10 6 9 11 -4 21 -13 9 -14 13 -4 17
10 4 10 7 -1 15 -15 11 -24 55 -9 46 13 -9 9 6 -7 22 -12 12 -12 20 -4 36 7
13 7 18 1 14 -6 -3 -14 -1 -18 5 -4 8 -3 9 4 5 7 -4 12 -2 12 4 0 6 6 8 13 5
6 -4 2 2 -10 13 -12 11 -20 22 -17 25 3 3 -2 4 -11 3 -9 -1 -21 -9 -26 -17 -7
-11 -9 -11 -9 4 0 9 -4 17 -10 17 -5 0 -10 -10 -10 -22 0 -13 -4 -18 -8 -13
-8 13 -55 18 -47 6 7 -12 -29 -8 -37 4 -5 6 -8 5 -8 -4 0 -7 -6 -11 -14 -8 -8
3 -17 0 -19 -7 -4 -9 -24 -13 -66 -12 -42 1 -62 -3 -66 -12 -3 -8 -10 -10 -17
-6 -19 12 -47 12 -42 0 2 -6 -7 -12 -21 -12 -16 -1 -22 2 -18 10 4 6 -6 3 -21
-8 -16 -10 -26 -14 -23 -9 4 5 0 10 -8 10 -8 0 -12 -4 -9 -9 3 -4 -2 -8 -10
-8 -9 0 -16 5 -16 10 0 6 -6 5 -14 -2 -8 -7 -11 -17 -8 -23 3 -5 -2 -4 -11 4
-11 9 -17 10 -17 2 0 -6 -5 -11 -11 -11 -5 0 -7 6 -3 13 6 9 4 9 -8 -1 -13
-10 -17 -10 -21 0 -4 11 -6 10 -6 0 -1 -7 -5 -10 -11 -7 -5 3 -10 1 -10 -5 0
-6 -4 -8 -10 -5 -5 3 -10 0 -10 -7 0 -11 -2 -10 -9 0 -6 11 -10 10 -15 -4 -6
-16 -8 -15 -28 2 -12 11 -18 13 -14 7 5 -10 -3 -13 -28 -13 -20 0 -36 -4 -36
-10 0 -5 -5 -10 -11 -10 -5 0 -8 4 -5 9 8 12 -24 7 -32 -5 -4 -5 -23 -9 -42
-8 -47 1 -71 -6 -64 -18 4 -6 -4 -5 -16 2 -12 7 -20 8 -16 2 3 -5 -1 -13 -10
-16 -8 -3 -12 -2 -9 4 3 6 1 10 -4 10 -6 0 -11 -5 -11 -12 0 -9 -3 -9 -11 -1
-13 13 -49 5 -49 -11 0 -7 -4 -6 -9 2 -6 11 -10 10 -15 -4 -5 -14 -9 -15 -15
-6 -4 7 -15 10 -24 6 -9 -3 -14 -11 -10 -17 4 -6 1 -7 -6 -3 -20 12 -61 14
-61 3 0 -6 -3 -7 -7 -4 -3 4 -13 1 -21 -6 -13 -10 -14 -9 -7 3 6 12 5 13 -6 3
-16 -15 -33 -17 -24 -3 3 6 2 10 -2 10 -5 0 -54 52 -108 116 -157 185 -371
396 -555 549 -343 284 -747 531 -1140 694 -58 24 -118 50 -135 57 -168 71
-542 177 -790 223 -147 28 -161 30 -225 37 -30 3 -57 7 -60 9 -3 2 -39 6 -80
10 -41 4 -95 9 -120 12 -52 5 -637 13 -642 8z m5187 -1845 c3 -5 -1 -10 -10
-10 -9 0 -13 5 -10 10 3 6 8 10 10 10 2 0 7 -4 10 -10z m-355 -534 c0 -3 -4
-8 -10 -11 -5 -3 -10 -1 -10 4 0 6 5 11 10 11 6 0 10 -2 10 -4z"/>
<path d="M9635 8030 c3 -5 8 -10 11 -10 2 0 4 5 4 10 0 6 -5 10 -11 10 -5 0
-7 -4 -4 -10z"/>
<path d="M9640 6525 c0 -2 6 -8 13 -14 10 -8 14 -7 14 2 0 8 -6 14 -14 14 -7
0 -13 -1 -13 -2z"/>
<path d="M9665 6390 c-3 -6 1 -7 9 -4 18 7 21 14 7 14 -6 0 -13 -4 -16 -10z"/>
<path d="M9636 5952 c-3 -5 1 -9 9 -9 8 0 12 4 9 9 -3 4 -7 8 -9 8 -2 0 -6 -4
-9 -8z"/>
<path d="M213 5211 c0 -11 5 -18 9 -15 4 3 5 11 1 19 -7 21 -12 19 -10 -4z"/>
</g>
</svg>
